<svg width="318" height="367" viewBox="0 0 318 367" fill="none" xmlns="http://www.w3.org/2000/svg">
<mask id="path-1-inside-1_79_34" fill="white">
<path fill-rule="evenodd" clip-rule="evenodd" d="M149 0H187V40L242 40V78H187V125.807C218.06 93.1124 259.158 80.637 288.143 98.1984C323.875 119.847 327.669 178.943 296.617 230.193C289.82 241.412 281.917 251.325 273.342 259.739C280.824 269.394 285 280.155 285 291.5C285 333.198 228.588 367 159 367C89.4121 367 33 333.198 33 291.5C33 276.09 40.7046 261.759 53.9314 249.813C48.8449 245.73 43.9071 241.225 39.1835 236.31C-2.33916 193.106 -11.5814 134.614 18.5404 105.664C48.6622 76.7149 106.742 88.2709 148.264 131.475C148.511 131.732 148.756 131.988 149 132.246V78H94.9999V40L149 40V0Z"/>
</mask>
<path fill-rule="evenodd" clip-rule="evenodd" d="M149 0H187V40L242 40V78H187V125.807C218.06 93.1124 259.158 80.637 288.143 98.1984C323.875 119.847 327.669 178.943 296.617 230.193C289.82 241.412 281.917 251.325 273.342 259.739C280.824 269.394 285 280.155 285 291.5C285 333.198 228.588 367 159 367C89.4121 367 33 333.198 33 291.5C33 276.09 40.7046 261.759 53.9314 249.813C48.8449 245.73 43.9071 241.225 39.1835 236.31C-2.33916 193.106 -11.5814 134.614 18.5404 105.664C48.6622 76.7149 106.742 88.2709 148.264 131.475C148.511 131.732 148.756 131.988 149 132.246V78H94.9999V40L149 40V0Z" fill="white"/>
<path d="M187 0H191V-4H187V0ZM149 0V-4H145V0H149ZM187 40H183V44L187 44L187 40ZM242 40H246V36L242 36L242 40ZM242 78V82H246V78H242ZM187 78V74H183V78H187ZM187 125.807H183V135.825L189.9 128.562L187 125.807ZM288.143 98.1984L286.071 101.619L286.071 101.619L288.143 98.1984ZM296.617 230.193L293.196 228.121L293.196 228.121L296.617 230.193ZM273.342 259.739L270.541 256.884L268.001 259.377L270.18 262.189L273.342 259.739ZM53.9314 249.813L56.6124 252.782L60.0981 249.633L56.4352 246.694L53.9314 249.813ZM39.1835 236.31L36.2995 239.082L36.2995 239.082L39.1835 236.31ZM18.5404 105.664L21.3121 108.548L21.3121 108.548L18.5404 105.664ZM148.264 131.475L145.38 134.247L145.38 134.247L148.264 131.475ZM149 132.246L146.097 134.998L153 142.277V132.246H149ZM149 78H153V74H149V78ZM94.9999 78H90.9999V82H94.9999V78ZM94.9999 40L94.9999 36L90.9999 36V40H94.9999ZM149 40L149 44L153 44V40H149ZM187 -4H149V4H187V-4ZM191 40V0H183V40H191ZM187 44L242 44L242 36L187 36L187 44ZM238 40V78H246V40H238ZM242 74H187V82H242V74ZM191 125.807V78H183V125.807H191ZM290.216 94.7773C258.869 75.7852 215.732 89.7562 184.1 123.052L189.9 128.562C220.389 96.4687 259.447 85.4888 286.071 101.619L290.216 94.7773ZM300.039 232.266C315.935 206.028 323.008 177.638 321.416 152.839C319.825 128.057 309.511 106.467 290.216 94.7773L286.071 101.619C302.507 111.578 311.956 130.361 313.432 153.352C314.907 176.326 308.351 203.108 293.196 228.121L300.039 232.266ZM276.144 262.594C284.961 253.942 293.071 243.766 300.039 232.266L293.196 228.121C286.569 239.059 278.873 248.708 270.541 256.884L276.144 262.594ZM289 291.5C289 279.122 284.433 267.521 276.504 257.289L270.18 262.189C277.215 271.267 281 281.187 281 291.5H289ZM159 371C194.393 371 226.63 362.412 250.151 348.318C273.593 334.272 289 314.308 289 291.5H281C281 310.389 268.201 328.176 246.039 341.455C223.958 354.687 193.195 363 159 363V371ZM29 291.5C29 314.308 44.4074 334.272 67.8486 348.318C91.3703 362.412 123.607 371 159 371V363C124.805 363 94.0419 354.687 71.9605 341.455C49.7987 328.176 37 310.389 37 291.5H29ZM51.2504 246.844C37.4339 259.323 29 274.661 29 291.5H37C37 277.52 43.9753 264.195 56.6124 252.782L51.2504 246.844ZM36.2995 239.082C41.1417 244.12 46.2065 248.742 51.4276 252.932L56.4352 246.694C51.4833 242.719 46.6724 238.33 42.0675 233.538L36.2995 239.082ZM15.7686 102.78C-0.496911 118.413 -5.83144 141.737 -1.95571 166.266C1.92262 190.811 15.0416 216.963 36.2995 239.082L42.0675 233.538C21.8028 212.453 9.53927 187.757 5.94625 165.017C2.35063 142.261 7.45587 121.865 21.3121 108.548L15.7686 102.78ZM151.148 128.704C129.89 106.585 104.279 92.4383 79.9075 87.589C55.5521 82.743 32.0342 87.1478 15.7686 102.78L21.3121 108.548C35.1684 95.2313 55.7511 90.9395 78.3464 95.4352C100.925 99.9277 125.115 113.162 145.38 134.247L151.148 128.704ZM151.902 129.494C151.652 129.23 151.401 128.966 151.148 128.703L145.38 134.247C145.62 134.497 145.859 134.747 146.097 134.998L151.902 129.494ZM145 78V132.246H153V78H145ZM149 74H94.9999V82H149V74ZM98.9999 78V40H90.9999V78H98.9999ZM94.9999 44L149 44L149 36L94.9999 36L94.9999 44ZM145 0V40H153V0H145Z" fill="black" mask="url(#path-1-inside-1_79_34)"/>
</svg>
