<svg width="255" height="307" viewBox="0 0 255 307" fill="none" xmlns="http://www.w3.org/2000/svg">
<mask id="path-1-inside-1_79_14" fill="white">
<path fill-rule="evenodd" clip-rule="evenodd" d="M229.369 0.681641L218 65.6394C239.089 87.4503 252 116.765 252 149C252 182.553 238.01 212.943 215.37 235H255V307H3V235H36.6296C13.9897 212.943 0 182.553 0 149C0 119.698 10.6684 92.8099 28.4493 71.7769L16.677 3.62986L63.2293 43.193C81.7103 32.8919 103.144 26.9997 126 26.9997C146.438 26.9997 165.74 31.7114 182.81 40.0743L229.369 0.681641Z"/>
</mask>
<path fill-rule="evenodd" clip-rule="evenodd" d="M229.369 0.681641L218 65.6394C239.089 87.4503 252 116.765 252 149C252 182.553 238.01 212.943 215.37 235H255V307H3V235H36.6296C13.9897 212.943 0 182.553 0 149C0 119.698 10.6684 92.8099 28.4493 71.7769L16.677 3.62986L63.2293 43.193C81.7103 32.8919 103.144 26.9997 126 26.9997C146.438 26.9997 165.74 31.7114 182.81 40.0743L229.369 0.681641Z" fill="white"/>
<path d="M218 65.6394L214.06 64.9498L213.709 66.9558L215.125 68.4198L218 65.6394ZM229.369 0.681641L233.309 1.37125L235.212 -9.50163L226.786 -2.37203L229.369 0.681641ZM215.37 235L212.579 232.135L205.532 239H215.37V235ZM255 235H259V231H255V235ZM255 307V311H259V307H255ZM3 307H-1V311H3V307ZM3 235V231H-1V235H3ZM36.6296 235V239H46.4677L39.4209 232.135L36.6296 235ZM28.4493 71.7769L31.504 74.3592L32.7085 72.9344L32.3909 71.0959L28.4493 71.7769ZM16.677 3.62986L19.2674 0.581895L10.8564 -6.56629L12.7354 4.31076L16.677 3.62986ZM63.2293 43.193L60.6389 46.241L62.7532 48.0378L65.1768 46.6869L63.2293 43.193ZM182.81 40.0743L181.05 43.6664L183.397 44.8165L185.393 43.128L182.81 40.0743ZM221.94 66.329L233.309 1.37125L225.429 -0.0079683L214.06 64.9498L221.94 66.329ZM256 149C256 115.669 242.644 85.373 220.876 62.859L215.125 68.4198C235.533 89.5277 248 117.861 248 149H256ZM218.162 237.865C241.528 215.101 256 183.695 256 149H248C248 181.412 234.492 210.786 212.579 232.135L218.162 237.865ZM255 231H215.37V239H255V231ZM259 307V235H251V307H259ZM3 311H255V303H3V311ZM-1 235V307H7V235H-1ZM36.6296 231H3V239H36.6296V231ZM-4 149C-4 183.695 10.4719 215.101 33.8384 237.865L39.4209 232.135C17.5076 210.786 4 181.412 4 149H-4ZM25.3946 69.1945C7.03482 90.9122 -4 118.705 -4 149H4C4 120.692 14.3019 94.7076 31.504 74.3592L25.3946 69.1945ZM32.3909 71.0959L20.6186 2.94895L12.7354 4.31076L24.5077 72.4578L32.3909 71.0959ZM14.0867 6.67782L60.6389 46.241L65.8196 40.145L19.2674 0.581895L14.0867 6.67782ZM126 22.9997C102.45 22.9997 80.3474 29.0721 61.2818 39.6991L65.1768 46.6869C83.0732 36.7116 103.839 30.9997 126 30.9997V22.9997ZM184.57 36.4822C166.961 27.8553 147.058 22.9997 126 22.9997V30.9997C145.818 30.9997 164.519 35.5676 181.05 43.6664L184.57 36.4822ZM226.786 -2.37203L180.226 37.0206L185.393 43.128L231.953 3.73531L226.786 -2.37203Z" fill="black" mask="url(#path-1-inside-1_79_14)"/>
</svg>
