<!-- <svg width="132" height="291" viewBox="0 0 132 291" fill="none" xmlns="http://www.w3.org/2000/svg">
<rect x="2" y="2" width="127.419" height="287" rx="63.7097" fill="white" stroke="black" stroke-width="4"/>
</svg> -->

<!-- For some reason upper code doesn`t work. Replaces with old one -->
<svg width="214" height="307" viewBox="0 0 214 307" fill="none" xmlns="http://www.w3.org/2000/svg">
<path d="M140.5 20C140.5 7.2 115.833 3 103.5 2.5L93.5 7C89.5 11.3333 80.9 22.5 78.5 32.5C75.5 45 93.5 55.5 93.5 63C93.5 70.5 66.5 82 49.5 82C35.9 82 22.1667 93.3333 17 99V123.5H78.5C79.5 134.833 80.9 157.5 78.5 157.5C76.1 157.5 66.1667 175.5 61.5 184.5V216C61.5 222 69.1667 231.5 73 235.5V258.5H35.5C30.1667 264 18.1 275.7 12.5 278.5C6.9 281.3 3.83333 297.333 3 305H210.5C211 298.667 211.7 284.5 210.5 278.5C209.3 272.5 192.333 262.667 184 258.5L143.5 255.5C143.5 248.833 144.3 235.5 147.5 235.5C151.5 235.5 159.5 215.5 160 200C160.4 187.6 144.167 166.5 136 157.5V123.5C154.333 124.333 193.2 125.5 202 123.5C213 121 188 83 169 82C153.8 81.2 134 66.3333 126 59C130.833 51.3333 140.5 32.8 140.5 20Z" fill="#EDEDED" stroke="black" stroke-width="4"/>
</svg>