<svg width="319" height="318" viewBox="0 0 319 318" fill="none" xmlns="http://www.w3.org/2000/svg">
<mask id="path-1-inside-1_79_26" fill="white">
<path fill-rule="evenodd" clip-rule="evenodd" d="M101.002 37.3158C105.842 33.5902 109 27.4716 109 20.5551C109 9.20285 100.493 0 90 0C79.5066 0 71 9.20285 71 20.5551C71 31.4086 78.7754 40.2973 88.6287 41.0576L86.1564 122.71L35.8309 95.3945C37.2162 92.5419 38 89.294 38 85.848C38 74.4957 29.4934 65.2928 19 65.2928C8.50659 65.2928 0 74.4957 0 85.848C0 97.2002 8.50659 106.403 19 106.403C20.9945 106.403 22.9172 106.071 24.7233 105.454L90 194.131V318H218V233.721L290.702 99.4849C293.45 101.157 296.622 102.11 300 102.11C310.493 102.11 319 92.9074 319 81.5551C319 74.1324 315.363 67.6286 309.912 64.0154L310.165 63.5478L309.735 63.8996C306.888 62.0582 303.558 61 300 61C289.507 61 281 70.2029 281 81.5551C281 83.3962 281.224 85.1808 281.643 86.8788L227.474 131.189L232.882 41.0753C233.252 41.0985 233.625 41.1103 234 41.1103C244.493 41.1103 253 31.9074 253 20.5551C253 9.20285 244.493 0 234 0C223.507 0 215 9.20285 215 20.5551C215 26.4384 217.285 31.7443 220.947 35.4913L182.087 93.1027H131.223L101.002 37.3158Z"/>
</mask>
<path fill-rule="evenodd" clip-rule="evenodd" d="M101.002 37.3158C105.842 33.5902 109 27.4716 109 20.5551C109 9.20285 100.493 0 90 0C79.5066 0 71 9.20285 71 20.5551C71 31.4086 78.7754 40.2973 88.6287 41.0576L86.1564 122.71L35.8309 95.3945C37.2162 92.5419 38 89.294 38 85.848C38 74.4957 29.4934 65.2928 19 65.2928C8.50659 65.2928 0 74.4957 0 85.848C0 97.2002 8.50659 106.403 19 106.403C20.9945 106.403 22.9172 106.071 24.7233 105.454L90 194.131V318H218V233.721L290.702 99.4849C293.45 101.157 296.622 102.11 300 102.11C310.493 102.11 319 92.9074 319 81.5551C319 74.1324 315.363 67.6286 309.912 64.0154L310.165 63.5478L309.735 63.8996C306.888 62.0582 303.558 61 300 61C289.507 61 281 70.2029 281 81.5551C281 83.3962 281.224 85.1808 281.643 86.8788L227.474 131.189L232.882 41.0753C233.252 41.0985 233.625 41.1103 234 41.1103C244.493 41.1103 253 31.9074 253 20.5551C253 9.20285 244.493 0 234 0C223.507 0 215 9.20285 215 20.5551C215 26.4384 217.285 31.7443 220.947 35.4913L182.087 93.1027H131.223L101.002 37.3158Z" fill="white"/>
<path d="M101.002 37.3158L98.5621 34.1459L95.8613 36.2245L97.4846 39.2211L101.002 37.3158ZM88.6287 41.0576L92.6269 41.1786L92.7424 37.3631L88.9364 37.0694L88.6287 41.0576ZM86.1564 122.71L84.2483 126.225L89.9579 129.324L90.1546 122.831L86.1564 122.71ZM35.8309 95.3945L32.2327 93.6472L30.5626 97.0863L33.9227 98.9101L35.8309 95.3945ZM24.7233 105.454L27.9447 103.083L26.2063 100.721L23.4312 101.669L24.7233 105.454ZM90 194.131H94V192.817L93.2213 191.759L90 194.131ZM90 318H86V322H90V318ZM218 318V322H222V318H218ZM218 233.721L214.483 231.816L214 232.707V233.721H218ZM290.702 99.4849L292.781 96.0675L289.188 93.8819L287.185 97.58L290.702 99.4849ZM309.912 64.0154L306.395 62.1104L304.652 65.3279L307.702 67.3495L309.912 64.0154ZM310.165 63.5478L313.683 65.4528L307.633 60.4517L310.165 63.5478ZM309.735 63.8996L307.563 67.2584L310.011 68.8417L312.268 66.9958L309.735 63.8996ZM281.643 86.8788L284.176 89.9749L286.133 88.3738L285.527 85.919L281.643 86.8788ZM227.474 131.189L223.481 130.95L222.934 140.071L230.007 134.285L227.474 131.189ZM232.882 41.0753L233.133 37.0832L229.13 36.832L228.89 40.8357L232.882 41.0753ZM220.947 35.4913L224.263 37.7281L226.085 35.0262L223.807 32.6955L220.947 35.4913ZM182.087 93.1027V97.1027H184.214L185.403 95.3394L182.087 93.1027ZM131.223 93.1027L127.706 95.008L128.841 97.1027H131.223V93.1027ZM105 20.5551C105 26.2524 102.401 31.191 98.5621 34.1459L103.441 40.4856C109.284 35.9893 113 28.6907 113 20.5551H105ZM90 4C97.9938 4 105 11.1099 105 20.5551H113C113 7.29584 102.993 -4 90 -4V4ZM75 20.5551C75 11.1099 82.0062 4 90 4V-4C77.007 -4 67 7.29584 67 20.5551H75ZM88.9364 37.0694C81.4094 36.4887 75 29.5714 75 20.5551H67C67 33.2458 76.1414 44.106 88.321 45.0457L88.9364 37.0694ZM90.1546 122.831L92.6269 41.1786L84.6306 40.9365L82.1582 122.588L90.1546 122.831ZM33.9227 98.9101L84.2483 126.225L88.0645 119.194L37.739 91.879L33.9227 98.9101ZM34 85.848C34 88.6843 33.3554 91.3352 32.2327 93.6472L39.429 97.1419C41.0769 93.7486 42 89.9036 42 85.848H34ZM19 69.2928C26.9938 69.2928 34 76.4027 34 85.848H42C42 72.5887 31.993 61.2928 19 61.2928V69.2928ZM4 85.848C4 76.4027 11.0062 69.2928 19 69.2928V61.2928C6.00697 61.2928 -4 72.5887 -4 85.848H4ZM19 102.403C11.0062 102.403 4 95.2932 4 85.848H-4C-4 99.1072 6.00697 110.403 19 110.403V102.403ZM23.4312 101.669C22.0329 102.146 20.5464 102.403 19 102.403V110.403C21.4426 110.403 23.8014 109.995 26.0155 109.24L23.4312 101.669ZM93.2213 191.759L27.9447 103.083L21.502 107.825L86.7787 196.502L93.2213 191.759ZM94 318V194.131H86V318H94ZM218 314H90V322H218V314ZM214 233.721V318H222V233.721H214ZM287.185 97.58L214.483 231.816L221.517 235.626L294.219 101.39L287.185 97.58ZM300 98.1103C297.39 98.1103 294.933 97.3765 292.781 96.0675L288.623 102.902C291.968 104.937 295.855 106.11 300 106.11V98.1103ZM315 81.5551C315 91.0004 307.994 98.1103 300 98.1103V106.11C312.993 106.11 323 94.8144 323 81.5551H315ZM307.702 67.3495C312.005 70.2018 315 75.4372 315 81.5551H323C323 72.8275 318.721 65.0553 312.122 60.6813L307.702 67.3495ZM306.648 61.6428L306.395 62.1104L313.429 65.9204L313.683 65.4528L306.648 61.6428ZM312.268 66.9958L312.698 66.6439L307.633 60.4517L307.203 60.8035L312.268 66.9958ZM300 65C302.749 65 305.329 65.8138 307.563 67.2584L311.908 60.5409C308.447 58.3026 304.368 57 300 57V65ZM285 81.5551C285 72.1099 292.006 65 300 65V57C287.007 57 277 68.2958 277 81.5551H285ZM285.527 85.919C285.184 84.5338 285 83.0715 285 81.5551H277C277 83.721 277.263 85.8279 277.76 87.8386L285.527 85.919ZM230.007 134.285L284.176 89.9749L279.111 83.7827L224.942 128.093L230.007 134.285ZM228.89 40.8357L223.481 130.95L231.467 131.429L236.875 41.3149L228.89 40.8357ZM234 37.1103C233.709 37.1103 233.419 37.1011 233.133 37.0832L232.632 45.0675C233.085 45.0959 233.541 45.1103 234 45.1103V37.1103ZM249 20.5551C249 30.0004 241.994 37.1103 234 37.1103V45.1103C246.993 45.1103 257 33.8144 257 20.5551H249ZM234 4C241.994 4 249 11.1099 249 20.5551H257C257 7.29584 246.993 -4 234 -4V4ZM219 20.5551C219 11.1099 226.006 4 234 4V-4C221.007 -4 211 7.29584 211 20.5551H219ZM223.807 32.6955C220.879 29.699 219 25.3977 219 20.5551H211C211 27.4791 213.691 33.7897 218.086 38.287L223.807 32.6955ZM185.403 95.3394L224.263 37.7281L217.63 33.2545L178.771 90.8659L185.403 95.3394ZM131.223 97.1027H182.087V89.1027H131.223V97.1027ZM97.4846 39.2211L127.706 95.008L134.741 91.1973L104.519 35.4104L97.4846 39.2211Z" fill="black" mask="url(#path-1-inside-1_79_26)"/>
</svg>
