<svg width="244" height="309" viewBox="0 0 244 309" fill="none" xmlns="http://www.w3.org/2000/svg">
<mask id="path-1-inside-1_79_7" fill="white">
<path fill-rule="evenodd" clip-rule="evenodd" d="M52 0H0V67V242V309H243V242H244V0H192V67H148V0H96V67H52V0Z"/>
</mask>
<path fill-rule="evenodd" clip-rule="evenodd" d="M52 0H0V67V242V309H243V242H244V0H192V67H148V0H96V67H52V0Z" fill="white"/>
<path d="M0 0V-4H-4V0H0ZM52 0H56V-4H52V0ZM0 309H-4V313H0V309ZM243 309V313H247V309H243ZM243 242V238H239V242H243ZM244 242V246H248V242H244ZM244 0H248V-4H244V0ZM192 0V-4H188V0H192ZM192 67V71H196V67H192ZM148 67H144V71H148V67ZM148 0H152V-4H148V0ZM96 0V-4H92V0H96ZM96 67V71H100V67H96ZM52 67H48V71H52V67ZM0 4H52V-4H0V4ZM4 67V0H-4V67H4ZM4 242V67H-4V242H4ZM4 309V242H-4V309H4ZM243 305H0V313H243V305ZM239 242V309H247V242H239ZM244 238H243V246H244V238ZM240 0V242H248V0H240ZM192 4H244V-4H192V4ZM196 67V0H188V67H196ZM148 71H192V63H148V71ZM144 0V67H152V0H144ZM96 4H148V-4H96V4ZM100 67V0H92V67H100ZM52 71H96V63H52V71ZM48 0V67H56V0H48Z" fill="black" mask="url(#path-1-inside-1_79_7)"/>
</svg>
